<svg viewBox="0 0 1024 1024" xmlns="http://www.w3.org/2000/svg"><defs><style>.cls-1{fill:none;}.cls-2{fill:#ccdeff;}.cls-3{fill:#fff;}.cls-4{fill:#101129;}.cls-5{fill:#83ccd2;}.cls-6{fill:#ffdc8a;}.cls-7{fill:#81e6c1;}</style></defs><g id="图层_2"><g id="缺省页"><g id="无记录"><rect height="1024" width="1024" class="cls-1"></rect><path d="M856.49,129.5l6.34,25.74a8,8,0,0,0,5.85,5.85l25.74,6.35a2,2,0,0,1,0,3.88l-25.74,6.35a8,8,0,0,0-5.85,5.85l-6.34,25.74a2,2,0,0,1-3.89,0l-6.34-25.74a8,8,0,0,0-5.86-5.85l-25.74-6.35a2,2,0,0,1,0-3.88l25.74-6.35a8,8,0,0,0,5.86-5.85l6.34-25.74A2,2,0,0,1,856.49,129.5Z" class="cls-2"></path><path d="M508.62,113.94l-1.95,21.28a6.46,6.46,0,0,0,2.92,6l17.93,11.62a1.61,1.61,0,0,1-1,2.95l-21.28-1.94a6.46,6.46,0,0,0-6,2.91l-11.61,17.93a1.61,1.61,0,0,1-3-1l2-21.28a6.43,6.43,0,0,0-2.91-6l-17.93-11.62a1.61,1.61,0,0,1,1-3l21.27,2a6.47,6.47,0,0,0,6-2.92l11.62-17.93A1.61,1.61,0,0,1,508.62,113.94Z" class="cls-2"></path><path d="M142.36,640.69l16.13,18.46a7.39,7.39,0,0,0,7.29,2.32l23.84-5.7a1.85,1.85,0,0,1,1.64,3.19l-18.45,16.13a7.39,7.39,0,0,0-2.33,7.29l5.71,23.83a1.85,1.85,0,0,1-3.19,1.65l-16.13-18.45a7.4,7.4,0,0,0-7.29-2.33l-23.84,5.7a1.85,1.85,0,0,1-1.65-3.19l18.46-16.13a7.41,7.41,0,0,0,2.33-7.29l-5.71-23.83A1.85,1.85,0,0,1,142.36,640.69Z" class="cls-2"></path><circle r="24" cy="472" cx="856" class="cls-2"></circle><path d="M288,288H736a32,32,0,0,1,32,32V864a32,32,0,0,1-32,32H256a0,0,0,0,1,0,0V320A32,32,0,0,1,288,288Z" class="cls-3"></path><path d="M736,900H252V320a36,36,0,0,1,36-36H736a36,36,0,0,1,36,36V864A36,36,0,0,1,736,900Zm-476-8H736a28,28,0,0,0,28-28V320a28,28,0,0,0-28-28H288a28,28,0,0,0-28,28Z" class="cls-4"></path><path d="M672,832V800a32,32,0,0,0-32-32H224a32,32,0,0,0-32,32v32a64,64,0,0,0,64,64H736A64,64,0,0,1,672,832Z" class="cls-5"></path><path d="M736,900H256a68.07,68.07,0,0,1-68-68V800a36,36,0,0,1,36-36H640a36,36,0,0,1,36,36v32a60.07,60.07,0,0,0,60,60ZM224,772a28,28,0,0,0-28,28v32a60.07,60.07,0,0,0,60,60H704a68.06,68.06,0,0,1-36-60V800a28,28,0,0,0-28-28Z" class="cls-4"></path><path d="M246.23,236.62c20.78,0,37.68-17.21,37.68-38.36a38.58,38.58,0,0,0-6.41-21.37,37,37,0,0,0-21-6.52c-.85,0-1.75,0-2.82.12a3.42,3.42,0,0,1-3.36-2,35.63,35.63,0,0,0-5.57-8.54l-1.35.08a3.4,3.4,0,0,1-3.36-2,34,34,0,0,0-2.68-4.77c-9.37-6.76-22.05-10.78-35.67-10.78-28.33,0-51.38,17.21-51.38,38.36a3.45,3.45,0,0,1-3.42,3.48c-20.78,0-37.68,14.08-37.68,31.39a27.08,27.08,0,0,0,4.06,14.15,42.5,42.5,0,0,0,23.34,6.77Z" class="cls-5"></path><path d="M246.23,244.11h-13.7a4,4,0,1,1,0-8h13.7c20.46,0,37.1-17,37.1-37.85s-16.64-37.84-37.1-37.84c-.83,0-1.71,0-2.77.11a4,4,0,0,1-3.94-2.32c-7-15.37-26.37-25.69-48.09-25.69-28,0-50.81,17-50.81,37.85a4,4,0,0,1-4,4c-20.46,0-37.1,13.84-37.1,30.87s16.64,30.87,37.1,30.87h68.51a4,4,0,0,1,0,8H136.62c-24.87,0-45.1-17.44-45.1-38.87,0-20.34,18.21-37.07,41.31-38.74,2.52-23.48,27.84-42,58.6-42,23.66,0,45,11.11,54.13,27.9h.67c24.87,0,45.1,20.56,45.1,45.84S271.1,244.11,246.23,244.11Z" class="cls-4"></path><path d="M887.51,888.91c20.8,0,37.71-19.73,37.71-44a49,49,0,0,0-6.41-24.51,33.81,33.81,0,0,0-21-7.49c-.85,0-1.75.05-2.83.14a3.37,3.37,0,0,1-3.36-2.3A41.66,41.66,0,0,0,886,801l-1.34.09a3.37,3.37,0,0,1-3.36-2.3,42.66,42.66,0,0,0-2.69-5.47,56.21,56.21,0,0,0-35.7-12.37c-28.36,0-51.43,19.74-51.43,44a3.75,3.75,0,0,1-3.43,4c-20.79,0-37.71,16.15-37.71,36a34.49,34.49,0,0,0,4.06,16.23,38.67,38.67,0,0,0,23.37,7.77Z" class="cls-5"></path><path d="M887.51,896.92H873.79a4,4,0,0,1,0-8h13.72c20.48,0,37.14-19.74,37.14-44s-16.66-44-37.14-44c-.82,0-1.69,0-2.73.13a4,4,0,0,1-4.06-2.5c-7.09-17.73-26.4-29.63-48.07-29.63-28,0-50.86,19.73-50.86,44a4,4,0,0,1-4,4c-20.48,0-37.14,16.14-37.14,36s16.66,36,37.14,36h68.58a4,4,0,0,1,0,8H777.79c-24.89,0-45.14-19.74-45.14-44,0-23,18.2-41.94,41.3-43.85,2.24-26.88,27.71-48.15,58.7-48.15,23.83,0,45.27,12.74,54.34,32h.52c24.89,0,45.14,23.32,45.14,52S912.4,896.92,887.51,896.92Z" class="cls-4"></path><rect rx="32" height="128" width="256" y="448" x="191.35" class="cls-6"></rect><rect rx="16" height="32" width="192" y="608" x="320" class="cls-6"></rect><circle r="32" cy="384" cx="352" class="cls-7"></circle><path d="M352,420a36,36,0,1,1,36-36A36,36,0,0,1,352,420Zm0-64a28,28,0,1,0,28,28A28,28,0,0,0,352,356Z" class="cls-4"></path><circle r="32" cy="384" cx="480" class="cls-6"></circle><path d="M480,420a36,36,0,1,1,36-36A36,36,0,0,1,480,420Zm0-64a28,28,0,1,0,28,28A28,28,0,0,0,480,356Z" class="cls-4"></path><path d="M704,452a4,4,0,0,1-4-4V416a4,4,0,0,1,8,0v32A4,4,0,0,1,704,452Z" class="cls-4"></path><path d="M704,612a4,4,0,0,1-4-4V480a4,4,0,0,1,8,0V608A4,4,0,0,1,704,612Z" class="cls-4"></path></g></g></g></svg>