<?xml version="1.0" standalone="no"?><!DOCTYPE svg PUBLIC "-//W3C//DTD SVG 1.1//EN" "http://www.w3.org/Graphics/SVG/1.1/DTD/svg11.dtd"><svg t="1670739504819" class="icon" viewBox="0 0 1024 1024" version="1.1" xmlns="http://www.w3.org/2000/svg" p-id="6888" xmlns:xlink="http://www.w3.org/1999/xlink" width="200" height="200"><path d="M731.8 63.4H284.2c-123.6 0-223.8 100.2-223.8 223.8v447.6c0 123.6 100.2 223.8 223.8 223.8h447.6c62.1 0 118.3-25.3 158.8-66.2 40.1-40.4 64.9-96.1 64.9-157.6V511 289.8v-2.6c0.1-123.6-100.1-223.8-223.7-223.8z" fill="#0BB59B" p-id="6889"></path><path d="M649.5 757.1l284.3 74c13.9-29.2 21.7-61.8 21.7-96.3V511v-52.9L699 369.6l-49.5 387.5z" fill="#0BB59B" p-id="6890"></path><path d="M649.5 757.1l284.3 74c13.9-29.2 21.7-61.8 21.7-96.3V511v-52.9L699 369.6l-49.5 387.5z" fill="#423709" opacity=".2" p-id="6891"></path><path d="M596 338.1l-64.9-13.3c-0.9-0.2-1.6-1.2-1.3-2.2l27.5-92.5c0.5-1.7-1.6-2.9-2.8-1.7L427.4 351.9c-0.9 0.9-0.5 2.6 0.8 2.9l64.9 13.3c0.9 0.2 1.6 1.2 1.3 2.2L467 462.8c-0.5 1.7 1.6 2.9 2.8 1.7L597 340.9c0.9-0.9 0.4-2.5-1-2.8z" fill="#FEDA14" p-id="6892"></path><path d="M278.8 592.4a233.3 203.7 0 1 0 466.6 0 233.3 203.7 0 1 0-466.6 0Z" fill="#FEDA14" p-id="6893"></path><path d="M325.3 369.6s-14.3 99.8 0 114c0 0 14.3-35.7 49.9-35.7 0 0.1-14.3-35.6-49.9-78.3z" fill="#FEDA14" p-id="6894"></path><path d="M347.1 398.3c-6.1-8.9-13.3-18.6-21.8-28.7 0 0-6.8 47.3-6.3 81.5 2.7-20.9 12.9-39.4 28.1-52.8z" fill="#1B3745" p-id="6895"></path><path d="M699 369.6s14.3 99.8 0 114c0 0-14.3-35.7-49.9-35.7 0 0.1 14.2-35.6 49.9-78.3z" fill="#FEDA14" p-id="6896"></path><path d="M677.2 398.3c6.1-8.9 13.3-18.6 21.8-28.7 0 0 6.8 47.3 6.3 81.5-2.7-20.9-13-39.4-28.1-52.8z" fill="#1B3745" p-id="6897"></path><path d="M357.7 644.5m-32.8 0a32.8 32.8 0 1 0 65.6 0 32.8 32.8 0 1 0-65.6 0Z" fill="#DB4D29" p-id="6898"></path><path d="M666.6 644.5m-32.8 0a32.8 32.8 0 1 0 65.6 0 32.8 32.8 0 1 0-65.6 0Z" fill="#DB4D29" p-id="6899"></path><path d="M508 591.8c0 6.8-5.5 12.3-12.3 12.3h-6.9c-6.8 0-12.3-5.5-12.3-12.3 0-3.9-3.2-7.1-7.1-7.1s-7.1 3.2-7.1 7.1c0 14.6 11.9 26.6 26.6 26.6h6.9c7.4 0 14.5-3.1 19.4-8.5 5 5.4 12 8.5 19.4 8.5h6.9c14.6 0 26.6-11.9 26.6-26.6 0-1.9-0.8-3.7-2.1-5.1-1.3-1.3-3.2-2.1-5.1-2.1-1.9 0-3.7 0.8-5.1 2.1-1.3 1.3-2.1 3.2-2.1 5.1 0 6.8-5.5 12.3-12.3 12.3h-6.9c-6.8 0-12.3-5.5-12.3-12.3" fill="#1B3745" p-id="6900"></path><path d="M393.8 536.5m-42.7 0a42.7 42.7 0 1 0 85.4 0 42.7 42.7 0 1 0-85.4 0Z" fill="#1B3745" p-id="6901"></path><path d="M366.1 524.1c0 4.7 3.8 8.4 8.4 8.4 4.7 0 8.4-3.8 8.4-8.4 0-4.7-3.8-8.4-8.4-8.4-4.6 0-8.4 3.7-8.4 8.4z" fill="#FFFFFF" p-id="6902"></path><path d="M630.5 536.5m-42.7 0a42.7 42.7 0 1 0 85.4 0 42.7 42.7 0 1 0-85.4 0Z" fill="#1B3745" p-id="6903"></path><path d="M602.7 524.1c0 4.7 3.8 8.4 8.4 8.4s8.4-3.8 8.4-8.4c0-4.7-3.8-8.4-8.4-8.4s-8.4 3.7-8.4 8.4z" fill="#FFFFFF" p-id="6904"></path><path d="M649.8 710.4s67.6-33 84.7-74.1c11.3 2.4 8.3 9.1 8.3 9.1S717.6 685 654 720c-24.6 7.3-4.2-9.6-4.2-9.6z" fill="#91959B" p-id="6905"></path><path d="M748.6 536.6c-27.3-3.5-24.5 28.6-28.2 66.1s-12.4 66.4 14.9 69.9 52.5-24.3 56.2-61.9c3.7-37.4-15.5-70.6-42.9-74.1zM626.4 697.1c15.2-3.1 29.4 3.7 31.7 15.2 2.3 11.4-8 23.1-23.2 26.2-15.2 3-29.4-3.7-31.7-15.2-2.4-11.4 8.1-23.2 23.2-26.2z" fill="#484848" p-id="6906"></path><path d="M279.9 536.6c27.3-3.5 24.5 28.6 28.2 66.1s12.5 66.4-14.9 69.9-52.6-24.3-56.2-61.9c-3.6-37.4 15.6-70.7 42.9-74.1z" fill="#333333" p-id="6907"></path></svg>