<svg xmlns:xlink="http://www.w3.org/1999/xlink" xmlns="http://www.w3.org/2000/svg" version="1.1" viewBox="0 0 153 144" height="144px" width="153px">
    <title>1</title>
    <defs>
        <linearGradient id="linearGradient-1" y2="-7.86526499%" x2="52.0445751%" y1="100%" x1="52.0445751%">
            <stop offset="0%" stop-opacity="0" stop-color="#F3F4F6"></stop>
            <stop offset="100%" stop-color="#E4E6E9"></stop>
        </linearGradient>
        <linearGradient id="linearGradient-2" y2="50%" x2="77.705552%" y1="50%" x1="7.10542736e-13%">
            <stop offset="0%" stop-color="#F3F4F6"></stop>
            <stop offset="100%" stop-color="#E4E6E9"></stop>
        </linearGradient>
        <linearGradient id="linearGradient-3" y2="39.7355999%" x2="74.592481%" y1="32.2647105%" x1="0.487016069%">
            <stop offset="0%" stop-color="#F3F4F6"></stop>
            <stop offset="100%" stop-color="#E4E6E9"></stop>
        </linearGradient>
    </defs>
    <g fill-rule="evenodd" fill="none" stroke-width="1" stroke="none" id="缺省页">
        <g id="编组-27" transform="translate(-1629.000000, -246.000000)">
            <g transform="translate(1640.000000, 253.887767)">
            <ellipse ry="23.5" rx="55.5" cy="64.6122333" cx="64.5" opacity="0.685308547" fill="url(#linearGradient-1)" id="椭圆形备份-7"></ellipse>
                <g transform="translate(0.000000, 0.000000)" id="编组-19">
                    <g transform="translate(23.114096, 0.000000)" id="编组-7">
                        <g transform="translate(33.612233, 33.612233) rotate(-315.000000) translate(-33.612233, -33.612233) translate(9.960352, 9.729239)" id="编组-6">
                            <path fill="#D8DADD" id="形状结合备份" d="M25.08045,-1.13686838e-13 C37.3540468,-1.13686838e-13 47.3037628,9.81633851 47.3037628,21.9254057 C47.3037628,22.5837297 47.2743546,23.235277 47.2167635,23.8788388 L47.2155391,43.9951675 L24.9922264,43.9951675 L24.9924403,43.8506432 C12.7593246,43.8038506 2.8571373,34.0055165 2.8571373,21.9254057 C2.8571373,9.81633851 12.8068533,-1.13686838e-13 25.08045,-1.13686838e-13 Z"></path>
                            <polygon points="44.3584018 47.7659895 47.2155391 43.9951675 43.2982047 40.2492225" fill="#D8DADD" id="路径-7"></polygon>
                            <path fill="url(#linearGradient-2)" id="形状结合" d="M22.2233127,3.77082197 C34.4969095,3.77082197 44.4466255,13.5871605 44.4466255,25.6962277 C44.4466255,26.3545516 44.4172173,27.006099 44.3596262,27.6496608 L44.3584018,47.7659895 L22.1350891,47.7659895 L22.135303,47.6214651 C9.90218732,47.5746726 2.27373675e-13,37.7763385 2.27373675e-13,25.6962277 C2.27373675e-13,13.5871605 9.94971603,3.77082197 22.2233127,3.77082197 Z"></path>
                            <ellipse ry="6.66593447" rx="6.7343372" cy="23.8829947" cx="20.3185545" fill="#FFFFFF" id="椭圆形"></ellipse>
                        </g>
                        <g transform="translate(54.535553, 49.695389) rotate(-315.000000) translate(-54.535553, -49.695389) translate(42.413746, 37.363410)" id="编组-6备份">
                            <path fill="#D8DADD" id="形状结合备份" d="M12.8999793,-5.65323518e-14 C19.1648957,-5.65323518e-14 24.2436139,5.08688861 24.2436139,11.3618837 C24.2436139,11.7011188 24.2287707,12.0368815 24.1996992,12.3685558 L24.1985811,22.7985737 L12.8549465,22.7985737 L12.8548972,22.7236796 C6.61071688,22.6993461 1.55634466,17.6218204 1.55634466,11.3618837 C1.55634466,5.08688861 6.63506288,-5.65323518e-14 12.8999793,-5.65323518e-14 Z"></path>
                            <polygon points="22.6422365 24.6639575 24.1985811 22.7985737 22.0515104 20.8798874" fill="#D8DADD" id="路径-7"></polygon>
                            <path fill="url(#linearGradient-3)" id="形状结合" d="M11.3436346,1.86538389 C17.608551,1.86538389 22.6872692,6.95227251 22.6872692,13.2272676 C22.6872692,13.5665027 22.672426,13.9022654 22.6433545,14.2339397 L22.6422365,24.6639575 L11.2986019,24.6639575 L11.2985526,24.5890635 C5.05437221,24.56473 1.13828578e-13,19.4872043 1.13828578e-13,13.2272676 C1.13828578e-13,6.95227251 5.07871821,1.86538389 11.3436346,1.86538389 Z"></path>
                            <ellipse ry="3.39160708" rx="3.38615959" cy="12.3793658" cx="10.4970947" fill="#FFFFFF" id="椭圆形"></ellipse>
                        </g>
                    </g>
                    <g transform="translate(0.000000, 7.112233)" id="编组-8">
                        <polygon points="0 1.63596624 5.47531242 6.50466243 27 0" fill="#E4E6E9" id="路径-8"></polygon>
                        <polygon points="8.43865059 9.19451538 27 0 18.6927303 18" fill="#E4E6E9" id="路径-9"></polygon>
                        <polygon points="5.47531242 6.50466243 5.03483634 13.9835549 8.5151278 9.16853226 27 -7.76243231e-16" fill="#D7D8DA" id="路径-10"></polygon>
                        <polygon points="5.03483634 13.9835549 11.1959766 11.4711432 8.42077931 9.19234846" fill="#DEE0E4" id="路径-11"></polygon>
                    </g>
                    <g transform="translate(114.500000, 38.112233) scale(-1, 1) translate(-114.500000, -38.112233) translate(101.000000, 29.112233)" id="编组-8备份">
                        <polygon points="0 1.63596624 5.47531242 6.50466243 27 0" fill="#E4E6E9" id="路径-8"></polygon>
                        <polygon points="8.43865059 9.19451538 27 0 18.6927303 18" fill="#E4E6E9" id="路径-9"></polygon>
                        <polygon points="5.47531242 6.50466243 5.03483634 13.9835549 8.5151278 9.16853226 27 -7.76243231e-16" fill="#D7D8DA" id="路径-10"></polygon>
                        <polygon points="5.03483634 13.9835549 11.1959766 11.4711432 8.42077931 9.19234846" fill="#DEE0E4" id="路径-11"></polygon>
                    </g>
                </g>
            </g>
        </g>
    </g>
</svg>