<svg viewBox="0 0 400 400" xmlns:xlink="http://www.w3.org/1999/xlink" xmlns="http://www.w3.org/2000/svg" id="图层_1"><defs><style>.cls-1{fill:url(#未命名的渐变_33);}.cls-2{fill:#c4c4c4;opacity:0.6;}.cls-3,.cls-4{fill:#cecece;}.cls-4{opacity:0.3;}.cls-5{fill:#eaeaea;}.cls-6{fill:url(#未命名的渐变_37);}.cls-7{fill:url(#未命名的渐变_37-2);}.cls-8{fill:url(#未命名的渐变_37-3);}.cls-9{fill:url(#未命名的渐变_37-4);}.cls-10{fill:url(#未命名的渐变_37-5);}.cls-11{fill:url(#未命名的渐变_13);}.cls-12{fill:url(#未命名的渐变_13-2);}.cls-13{fill:url(#未命名的渐变_13-3);}.cls-14{fill:url(#未命名的渐变_13-4);}.cls-15{fill:url(#未命名的渐变_13-5);}.cls-16{fill:url(#未命名的渐变_13-6);}.cls-17{fill:url(#未命名的渐变_13-7);}.cls-18{fill:url(#未命名的渐变_13-8);}.cls-19{fill:url(#未命名的渐变_13-9);}.cls-20{fill:url(#未命名的渐变_13-10);}.cls-21{fill:url(#未命名的渐变_13-11);}.cls-22{fill:url(#未命名的渐变_13-12);}.cls-23{fill:url(#未命名的渐变_13-13);}.cls-24{fill:url(#未命名的渐变_13-14);}.cls-25{fill:url(#未命名的渐变_13-15);}.cls-26{fill:url(#未命名的渐变_13-16);}.cls-27{fill:url(#未命名的渐变_13-17);}.cls-28{fill:url(#未命名的渐变_13-18);}.cls-29{fill:url(#未命名的渐变_13-19);}.cls-30{fill:url(#未命名的渐变_13-20);}.cls-31{fill:url(#未命名的渐变_13-21);}</style><linearGradient gradientUnits="userSpaceOnUse" y2="382.5" x2="196.64" y1="135.09" x1="211.26" id="未命名的渐变_33"><stop stop-color="#f0eff2" offset="0"></stop><stop stop-opacity="0.95" stop-color="#edecef" offset="0.01"></stop><stop stop-opacity="0.75" stop-color="#e1e0e4" offset="0.08"></stop><stop stop-opacity="0.57" stop-color="#d7d6da" offset="0.16"></stop><stop stop-opacity="0.42" stop-color="#cecdd1" offset="0.23"></stop><stop stop-opacity="0.29" stop-color="#c6c5ca" offset="0.32"></stop><stop stop-opacity="0.18" stop-color="#c0bfc4" offset="0.4"></stop><stop stop-opacity="0.1" stop-color="#bbbac0" offset="0.5"></stop><stop stop-opacity="0.04" stop-color="#b8b7bc" offset="0.62"></stop><stop stop-opacity="0.01" stop-color="#b6b5bb" offset="0.75"></stop><stop stop-opacity="0" stop-color="#b5b4ba" offset="1"></stop></linearGradient><linearGradient gradientUnits="userSpaceOnUse" y2="158.2" x2="306.42" y1="144.31" x1="305.95" id="未命名的渐变_37"><stop stop-color="#f0eff2" offset="0"></stop><stop stop-opacity="0" stop-color="#c6c5cc" offset="1"></stop></linearGradient><linearGradient xlink:href="#未命名的渐变_37" y2="160.67" x2="319.55" y1="155.07" x1="319.37" id="未命名的渐变_37-2"></linearGradient><linearGradient xlink:href="#未命名的渐变_37" y2="160.04" x2="295.03" y1="155.4" x1="294.87" id="未命名的渐变_37-3"></linearGradient><linearGradient xlink:href="#未命名的渐变_37" y2="147.21" x2="96.99" y1="121.27" x1="96.12" id="未命名的渐变_37-4"></linearGradient><linearGradient xlink:href="#未命名的渐变_37" y2="149.67" x2="113.97" y1="139.21" x1="113.62" id="未命名的渐变_37-5"></linearGradient><linearGradient gradientUnits="userSpaceOnUse" y2="101.29" x2="225.91" y1="-3.4" x1="241.01" id="未命名的渐变_13"><stop stop-color="#f0eff2" offset="0"></stop><stop stop-color="#c6c5cc" offset="1"></stop></linearGradient><linearGradient xlink:href="#未命名的渐变_13" y2="182.46" x2="226.39" y1="73.41" x1="234.78" id="未命名的渐变_13-2"></linearGradient><linearGradient xlink:href="#未命名的渐变_13" y2="125.69" x2="160.91" y1="87.77" x1="126.35" id="未命名的渐变_13-3"></linearGradient><linearGradient xlink:href="#未命名的渐变_13" y2="145.17" x2="181.94" y1="128.73" x1="57.45" id="未命名的渐变_13-4"></linearGradient><linearGradient xlink:href="#未命名的渐变_13" y2="129.97" x2="191.43" y1="71.25" x1="322.97" id="未命名的渐变_13-5"></linearGradient><linearGradient xlink:href="#未命名的渐变_13" y2="138.27" x2="136.79" y1="55.39" x1="162.29" id="未命名的渐变_13-6"></linearGradient><linearGradient xlink:href="#未命名的渐变_13" y2="193.25" x2="252.93" y1="164.14" x1="281.45" id="未命名的渐变_13-7"></linearGradient><linearGradient xlink:href="#未命名的渐变_13" y2="182.39" x2="268.71" y1="180.88" x1="269.24" id="未命名的渐变_13-8"></linearGradient><linearGradient xlink:href="#未命名的渐变_13" y2="191.12" x2="267.15" y1="191.35" x1="268.36" id="未命名的渐变_13-9"></linearGradient><linearGradient xlink:href="#未命名的渐变_13" y2="200.76" x2="244.2" y1="182.83" x1="261.76" id="未命名的渐变_13-10"></linearGradient><linearGradient xlink:href="#未命名的渐变_13" y2="194.07" x2="253.92" y1="193.14" x1="254.25" id="未命名的渐变_13-11"></linearGradient><linearGradient xlink:href="#未命名的渐变_13" y2="199.45" x2="252.96" y1="199.59" x1="253.7" id="未命名的渐变_13-12"></linearGradient><linearGradient xlink:href="#未命名的渐变_13" y2="258.63" x2="337.73" y1="240.7" x1="355.29" id="未命名的渐变_13-13"></linearGradient><linearGradient xlink:href="#未命名的渐变_13" y2="251.94" x2="347.44" y1="251.02" x1="347.77" id="未命名的渐变_13-14"></linearGradient><linearGradient xlink:href="#未命名的渐变_13" y2="257.32" x2="346.48" y1="257.46" x1="347.23" id="未命名的渐变_13-15"></linearGradient><linearGradient xlink:href="#未命名的渐变_13" y2="220.39" x2="60.76" y1="206.36" x1="74.5" id="未命名的渐变_13-16"></linearGradient><linearGradient xlink:href="#未命名的渐变_13" y2="215.16" x2="68.36" y1="214.43" x1="68.62" id="未命名的渐变_13-17"></linearGradient><linearGradient xlink:href="#未命名的渐变_13" y2="219.36" x2="67.61" y1="219.47" x1="68.19" id="未命名的渐变_13-18"></linearGradient><linearGradient xlink:href="#未命名的渐变_13" y2="212.76" x2="44.71" y1="192.07" x1="64.97" id="未命名的渐变_13-19"></linearGradient><linearGradient xlink:href="#未命名的渐变_13" y2="205.04" x2="55.92" y1="203.97" x1="56.3" id="未命名的渐变_13-20"></linearGradient><linearGradient xlink:href="#未命名的渐变_13" y2="211.24" x2="54.81" y1="211.4" x1="55.67" id="未命名的渐变_13-21"></linearGradient></defs><title>空状态</title><path d="M2.38,326.11C3.63,225.77,91.63,144.79,200,144.79c109.15,0,197.63,82.15,197.63,183.49" class="cls-1"></path><ellipse ry="17.97" rx="19.35" cy="256.46" cx="218.49" class="cls-2"></ellipse><ellipse ry="12.12" rx="14.77" cy="175.78" cx="267.42" class="cls-3"></ellipse><path d="M174.8,159.51c6.73,0,12.19-4.81,12.19-10.74a9.53,9.53,0,0,0-.69-3.53,210.41,210.41,0,0,0-23.65,2.84c0,.23,0,.46,0,.69C162.61,154.7,168.07,159.51,174.8,159.51Z" class="cls-3"></path><path d="M103.24,199.34c15.88,0,28.75-12,28.75-26.69a25.22,25.22,0,0,0-4.87-14.85,202.13,202.13,0,0,0-50.05,25.86C81.59,192.9,91.6,199.34,103.24,199.34Z" class="cls-4"></path><ellipse ry="13.31" rx="14.33" cy="256.46" cx="99.51" class="cls-5"></ellipse><ellipse ry="7.96" rx="8.58" cy="274.78" cx="291.22" class="cls-5"></ellipse><path d="M311.73,150.71a5.16,5.16,0,0,0-1.25.16v-.16a5.13,5.13,0,1,0-10.25,0v0a5.12,5.12,0,1,0,3.29,9.5,5.15,5.15,0,0,0,5-.41,5.12,5.12,0,1,0,3.18-9.14Z" class="cls-6"></path><path d="M321.7,157.65a2.09,2.09,0,0,0-.51.07v-.07a2.07,2.07,0,0,0-4.13,0v0a2.06,2.06,0,0,0,.29,4.11,2.06,2.06,0,0,1,1.9-.09,2.06,2.06,0,0,1,2.45.09,2.07,2.07,0,0,0,0-4.13Z" class="cls-7"></path><path d="M296.8,157.54a2,2,0,0,0-.42.05v-.05a1.71,1.71,0,1,0-3.42,0v0a1.71,1.71,0,1,0,1.1,3.16,1.58,1.58,0,0,0,.72.16,1.78,1.78,0,0,0,1-.29,1.71,1.71,0,1,0,1.06-3.05Z" class="cls-8"></path><path d="M106.93,133.22a9.58,9.58,0,0,0-2.35.3c0-.1,0-.2,0-.3a9.58,9.58,0,1,0-19.15,0v.1a9.57,9.57,0,1,0,6.14,17.74,9.54,9.54,0,0,0,9.4-.77,9.57,9.57,0,1,0,6-17.07Z" class="cls-9"></path><path d="M118,144a3.75,3.75,0,0,0-1,.12s0-.08,0-.12a3.86,3.86,0,1,0-7.72,0v0a3.86,3.86,0,0,0,.53,7.68,3.93,3.93,0,0,0,2-.53,3.81,3.81,0,0,0,1.62.36,3.87,3.87,0,0,0,2.17-.67A3.86,3.86,0,1,0,118,144Z" class="cls-10"></path><polygon points="265.5 169.52 180.75 154.22 180.75 71.72 265.5 82.78 265.5 169.52" class="cls-11"></polygon><polygon points="265.5 179.25 193.67 197.71 193.67 102.58 265.5 82.78 265.5 179.25" class="cls-12"></polygon><polygon points="180.75 166.84 113.32 149.22 113.32 85.13 180.75 71.72 180.75 166.84" class="cls-13"></polygon><polygon points="193.67 197.7 113.32 180.09 113.32 85.13 193.67 102.58 193.67 197.7" class="cls-14"></polygon><polygon points="285.43 114.39 216.38 140.5 193.67 102.58 265.5 82.78 285.43 114.39" class="cls-15"></polygon><polygon points="180.02 139.38 97.14 117.92 113.32 85.13 193.67 102.58 180.02 139.38" class="cls-16"></polygon><path d="M270,168.56c.58-2.36,1.2-7-2.74-7.89a5.84,5.84,0,0,0-6.63,4.07c-.83,2.52-1.94,13.44-2.16,15.67a4.18,4.18,0,0,1-.19.92,9.47,9.47,0,0,1-4.35,5.52c-3.54,1.81,3.45,12.42,13.48,9.56s10.71-8.45,10-16.07c-.59-6.67-5.46-2.59-7.27-7.63A7.16,7.16,0,0,1,270,168.56Z" class="cls-17"></path><path d="M264.94,189.7a7.17,7.17,0,0,0,1.62-1.33,10.07,10.07,0,0,0,1.32-1.72,11.58,11.58,0,0,0,1-2,14.19,14.19,0,0,0,.62-2.14,15.3,15.3,0,0,1-.4,2.21,11.74,11.74,0,0,1-.78,2.12,11.24,11.24,0,0,1-1.2,1.95,8.48,8.48,0,0,1-1.67,1.66Z" class="cls-18"></path><path d="M265,176.46a19.58,19.58,0,0,0-1,7.07,10.81,10.81,0,0,0,.75,3.43,22.76,22.76,0,0,1,1.19,3.49,20.58,20.58,0,0,1,.57,3.68,22.94,22.94,0,0,1-.08,3.71c-.05.61-.13,1.23-.23,1.84s-.17,1.16-.23,1.75-.09,1.17-.13,1.78l-.07.91,0,.45,0,.23v.11s0,.08-.1.11l-.72,0c-.14,0-.08-.07-.09-.11v-.34l0-.46,0-.91a16.47,16.47,0,0,1,0-1.85,18.11,18.11,0,0,1,.25-1.84c.1-.59.18-1.18.24-1.76a22.29,22.29,0,0,0-.27-7.06,26.25,26.25,0,0,0-1-3.43,11.66,11.66,0,0,1-.63-3.68,18.65,18.65,0,0,1,1.43-7.17Z" class="cls-19"></path><path d="M254.72,185.56c.36-1.46.74-4.34-1.68-4.86a3.61,3.61,0,0,0-4.09,2.5c-.51,1.55-1.19,8.28-1.33,9.65a3.59,3.59,0,0,1-.11.57,5.85,5.85,0,0,1-2.68,3.4c-2.19,1.12,2.12,7.65,8.3,5.88s6.59-5.2,6.17-9.89c-.36-4.1-3.36-1.59-4.48-4.7A4.43,4.43,0,0,1,254.72,185.56Z" class="cls-20"></path><path d="M251.6,198.57a4.68,4.68,0,0,0,1-.81,6.46,6.46,0,0,0,.81-1.06,6.86,6.86,0,0,0,.59-1.22,8.53,8.53,0,0,0,.38-1.31,7.82,7.82,0,0,1-.25,1.35,7.57,7.57,0,0,1-.47,1.31,7.45,7.45,0,0,1-.74,1.2,4.8,4.8,0,0,1-1,1Z" class="cls-21"></path><path d="M251.64,190.42a12,12,0,0,0-.6,4.36,6.82,6.82,0,0,0,.47,2.1,15.67,15.67,0,0,1,.73,2.16,13.13,13.13,0,0,1,.35,2.26,14.42,14.42,0,0,1-.05,2.28c0,.38-.08.76-.14,1.14a10.31,10.31,0,0,0-.14,1.08c0,.36-.06.71-.08,1.09l0,.56,0,.28v.21s0,.05-.07.07h-.44c-.08,0-.05-.05-.05-.07v-.49l0-.56a10.89,10.89,0,0,1,0-1.14,10.43,10.43,0,0,1,.16-1.14q.09-.54.15-1.08a13.79,13.79,0,0,0-.17-4.35,15.84,15.84,0,0,0-.61-2.11,7.42,7.42,0,0,1-.39-2.27,11.64,11.64,0,0,1,.88-4.41Z" class="cls-22"></path><path d="M348.24,243.43c.36-1.46.74-4.34-1.68-4.86a3.61,3.61,0,0,0-4.09,2.5c-.51,1.55-1.19,8.28-1.33,9.65a2.74,2.74,0,0,1-.11.57,5.85,5.85,0,0,1-2.68,3.4c-2.18,1.12,2.12,7.65,8.3,5.89s6.59-5.21,6.18-9.9c-.37-4.1-3.37-1.59-4.48-4.7A4.43,4.43,0,0,1,348.24,243.43Z" class="cls-23"></path><path d="M345.12,256.44a4.45,4.45,0,0,0,1-.81,6,6,0,0,0,.81-1.06,6.86,6.86,0,0,0,.59-1.22,8.22,8.22,0,0,0,.38-1.31,8.88,8.88,0,0,1-.24,1.35,7.61,7.61,0,0,1-.48,1.31,7,7,0,0,1-.74,1.2,5,5,0,0,1-1,1Z" class="cls-24"></path><path d="M345.16,248.29a12.47,12.47,0,0,0-.6,4.36,6.82,6.82,0,0,0,.47,2.1,14.44,14.44,0,0,1,.73,2.16,13.3,13.3,0,0,1,.36,2.26,15.89,15.89,0,0,1-.05,2.29c0,.37-.09.75-.15,1.13s-.1.72-.14,1.08,0,.72-.08,1.09l0,.56,0,.28v.21s0,.05-.06.07h-.44c-.09,0-.05-.05-.06-.07v-.49l0-.56a8.73,8.73,0,0,1,0-1.14,10.43,10.43,0,0,1,.15-1.14q.09-.54.15-1.08a13.79,13.79,0,0,0-.17-4.35,14.48,14.48,0,0,0-.61-2.11,7.11,7.11,0,0,1-.38-2.27,11.45,11.45,0,0,1,.87-4.41Z" class="cls-25"></path><path d="M69,208.49c.28-1.14.58-3.39-1.32-3.8a2.82,2.82,0,0,0-3.2,2,72.22,72.22,0,0,0-1,7.55,1.64,1.64,0,0,1-.09.44,4.58,4.58,0,0,1-2.1,2.67c-1.7.87,1.66,6,6.5,4.6s5.16-4.07,4.84-7.74c-.29-3.22-2.64-1.25-3.51-3.68A3.49,3.49,0,0,1,69,208.49Z" class="cls-26"></path><path d="M66.55,218.68a3.84,3.84,0,0,0,.78-.64,4.65,4.65,0,0,0,.63-.83,5.59,5.59,0,0,0,.47-1,6.05,6.05,0,0,0,.29-1,6.37,6.37,0,0,1-.19,1.06,6.68,6.68,0,0,1-.37,1,6,6,0,0,1-.58.93,4.1,4.1,0,0,1-.81.8Z" class="cls-27"></path><path d="M66.58,212.29a9.5,9.5,0,0,0-.47,3.42,5.41,5.41,0,0,0,.36,1.65,10.4,10.4,0,0,1,.58,1.68,9.58,9.58,0,0,1,.27,1.77,10.68,10.68,0,0,1,0,1.79c0,.3-.06.59-.11.89s-.08.56-.11.84,0,.56-.06.86l0,.44,0,.22V226s0,0,0,.05h-.35c-.07,0,0,0,0-.06v-.82a6.8,6.8,0,0,1,0-.9,8.47,8.47,0,0,1,.12-.88c0-.29.09-.57.12-.85a10.84,10.84,0,0,0-.14-3.41,11,11,0,0,0-.48-1.65,5.38,5.38,0,0,1-.29-1.77,8.86,8.86,0,0,1,.68-3.46Z" class="cls-28"></path><path d="M56.84,195.22c.42-1.68.86-5-1.94-5.61a4.16,4.16,0,0,0-4.71,2.89c-.59,1.79-1.38,9.55-1.54,11.13a3,3,0,0,1-.13.66,6.75,6.75,0,0,1-3.09,3.92C42.91,209.5,47.88,217,55,215s7.61-6,7.13-11.41c-.42-4.74-3.88-1.85-5.17-5.43A5.08,5.08,0,0,1,56.84,195.22Z" class="cls-29"></path><path d="M53.24,210.23a5,5,0,0,0,1.16-.94,7.42,7.42,0,0,0,.93-1.22,8.22,8.22,0,0,0,.68-1.4,8.82,8.82,0,0,0,.44-1.52,10.54,10.54,0,0,1-.28,1.57,9.33,9.33,0,0,1-.55,1.5,8,8,0,0,1-.86,1.39,5.79,5.79,0,0,1-1.19,1.18Z" class="cls-30"></path><path d="M53.29,200.83a13.87,13.87,0,0,0-.69,5,7.4,7.4,0,0,0,.54,2.43,16.2,16.2,0,0,1,.84,2.49,15.25,15.25,0,0,1,.41,2.61,16.61,16.61,0,0,1-.06,2.64c0,.43-.09.87-.16,1.3s-.13.83-.17,1.25-.06.83-.09,1.26l0,.65,0,.32,0,.16V221s0,.05-.07.08h-.51c-.1,0-.06-.06-.07-.09v-.56l0-.65a11.56,11.56,0,0,1,0-1.31,11.16,11.16,0,0,1,.18-1.31c.07-.42.12-.84.17-1.25a15.94,15.94,0,0,0-.2-5,19.18,19.18,0,0,0-.7-2.43,8.14,8.14,0,0,1-.44-2.62,13,13,0,0,1,1-5.09Z" class="cls-31"></path></svg>