<svg xmlns:xlink="http://www.w3.org/1999/xlink" xmlns="http://www.w3.org/2000/svg" version="1.1" viewBox="0 0 153 144" height="144px" width="153px">
    <title> 备份 10</title>
    <defs>
        <linearGradient id="linearGradient-1" y2="-7.86526499%" x2="52.0445751%" y1="100%" x1="52.0445751%">
            <stop offset="0%" stop-opacity="0" stop-color="#F3F4F6"></stop>
            <stop offset="100%" stop-color="#E4E6E9"></stop>
        </linearGradient>
        <linearGradient id="linearGradient-2" y2="65.8988422%" x2="55.9821181%" y1="42.5828942%" x1="51.0590102%">
            <stop offset="0%" stop-color="#E8E8E9"></stop>
            <stop offset="100%" stop-color="#CCCDCE"></stop>
        </linearGradient>
        <linearGradient id="linearGradient-3" y2="31.6155331%" x2="70.0434195%" y1="110.768192%" x1="-12.7616925%">
            <stop offset="0%" stop-color="#EEEEEE"></stop>
            <stop offset="100%" stop-color="#D8D8D8"></stop>
        </linearGradient>
        <linearGradient id="linearGradient-4" y2="17.3862394%" x2="82.0607981%" y1="83.1759315%" x1="16.6823234%">
            <stop offset="0%" stop-color="#EEEEEE"></stop>
            <stop offset="100%" stop-color="#D8D8D8"></stop>
        </linearGradient>
    </defs>
    <g fill-rule="evenodd" fill="none" stroke-width="1" stroke="none" id="缺省页">
        <g id="编组-21" transform="translate(-308.000000, -251.000000)">
            <g transform="translate(325.000000, 275.000000)">
                <ellipse ry="23.5" rx="55.5" cy="54.5" cx="55.5" fill="url(#linearGradient-1)" id="椭圆形备份-11"></ellipse>
                <g transform="translate(36.000000, 0.000000)" id="编组-12">
                    <path stroke-width="0.520000665" stroke="#979797" id="矩形" d="M45.195676,2.66395955 C45.6935344,2.59523267 46.1721177,2.73480918 46.5434182,3.01603201 C46.9104713,3.29403793 47.1726818,3.71046813 47.2450279,4.20092696 L47.2450279,4.20092696 L47.2645603,52.5576806 C47.2645603,53.0010541 47.1047923,53.4121603 46.8357679,53.7311129 C46.5667435,54.0500656 46.1884628,54.2768647 45.7514375,54.3516241 L45.7514375,54.3516241 L4.96973874,61.3279128 C4.47435491,61.4126553 3.99152036,61.2885812 3.61134616,61.0194755 C3.23654608,60.7541739 2.96152446,60.3479121 2.87262472,59.861808 L2.87262472,59.861808 L2.84285689,10.0965745 C2.84285689,9.64208046 3.01052476,9.22242984 3.29074874,8.90086492 C3.57097271,8.57929999 3.96375279,8.35582075 4.41397719,8.29366952 L4.41397719,8.29366952 Z"></path>
                    <path fill="#D8DADD" id="矩形备份-4" d="M1.79556606,5.95610901 L42.5772649,0.326399039 C43.715227,0.169309041 44.7650742,0.964463047 44.9221642,2.10242522 C44.9351755,2.19667891 44.9417041,2.29171431 44.9417041,2.38686182 L44.9417041,50.4776779 C44.9417041,51.4911031 44.2113359,52.3570205 43.2124209,52.5278991 L2.43072211,59.5041878 C1.29841621,59.6978848 0.223478472,58.936992 0.0297814687,57.8046861 C0.00996281825,57.688831 4.31972936e-16,57.5715046 0,57.4539666 L0,8.01657179 C3.16867584e-16,6.97772838 0.766481706,6.09816897 1.79556606,5.95610901 Z"></path>
                    <path fill="#D8DADD" id="路径-15" d="M42.5286432,0.321249918 C44.5299765,0.172482786 45.9162098,0.970516664 46.687343,2.71535155 C47.4584763,4.46018644 47.3274103,7.62874405 46.2941451,12.2210244 L39.2425274,10.9289264 L42.5286432,0.321249918 Z"></path>
                    <path fill="#D8DADD" id="路径-14" d="M0.196147886,58.3425903 C1.53077953,60.4402758 3.06634877,61.4891186 4.80285563,61.4891186 C6.53936249,61.4891186 7.84109459,59.6815728 8.70805195,56.0664811 L0.196147886,58.3425903 Z"></path>
                    <path fill="#E4E6E9" id="矩形备份-3" d="M4.37842262,8.03611167 L45.1601214,2.4064017 C46.2980836,2.2493117 47.3479308,3.04446571 47.5050208,4.18242788 C47.5180321,4.27668157 47.5245607,4.37171697 47.5245607,4.46686449 L47.5245607,52.5576806 C47.5245607,53.5711057 46.7941924,54.4370232 45.7952775,54.6079018 L5.01357867,61.5841905 C3.88127277,61.7778875 2.80633503,61.0169946 2.61263803,59.8846887 C2.59281938,59.7688337 2.58285656,59.6515072 2.58285656,59.5339693 L2.58285656,10.0965745 C2.58285656,9.05773104 3.34933826,8.17817163 4.37842262,8.03611167 Z"></path>
                    <path fill="#FDFDFD" id="路径-16" d="M8.16316093,10.2054339 L8.37584527,10.1763626 L8.37584527,10.1763626 L41.1605748,5.6951126 L42.8187182,5.46846577 C43.6723541,5.35176502 44.4589539,5.94918686 44.5756353,6.80282544 C44.5863219,6.88100852 44.5910611,6.95988976 44.589812,7.03878993 C44.5723908,8.13921451 44.5611363,8.90319242 44.5560485,9.33072365 C44.3995981,22.4773502 44.7396914,32.4187141 45.5763285,39.1548152 C46.4980085,46.57563 48.3035147,50.9342588 50.9928473,52.2307016 L11.9584913,58.4505368 C8.031194,54.5447878 5.89313725,49.442749 5.54432105,43.1444207 C5.2163449,37.2223866 5.33328911,27.248508 5.89515368,13.222785 C5.90039433,13.0919635 5.90782977,12.9093017 5.91746,12.6747996 C5.96913869,11.4164074 6.91531108,10.3759988 8.16316093,10.2054339 Z"></path>
                    <ellipse ry="2.34000299" rx="1.54971394" cy="34.0240135" cx="17.0468533" fill="#D8D8D8" id="椭圆形"></ellipse>
                    <ellipse ry="2.34000299" rx="1.54971394" cy="32.4640115" cx="26.8617082" fill="#D8D8D8" id="椭圆形备份-9"></ellipse>
                    <ellipse ry="2.34000299" rx="1.54971394" cy="30.9040095" cx="35.6434205" fill="#D8D8D8" id="椭圆形备份-10"></ellipse>
                    <path fill="#BBBCBD" id="路径-17备份" d="M13.5176018,4.35752992 L16.6166064,6.02350093 L16.6166064,9.91634554 C16.6165986,11.0651036 17.547851,11.996356 18.6966091,11.996356 C18.7794993,11.996356 18.8623155,11.9914011 18.9446144,11.9815179 C19.6448382,11.8974284 20.4455402,11.7942853 21.3467206,11.6720886 C23.2418445,11.4151167 26.3387699,10.9711755 30.6374968,10.340265 C31.6586436,10.1903881 32.4154535,9.31439609 32.4154535,8.28230892 L32.4154535,3.91784521 L32.4154535,3.91784521 L29.0657667,2.60000333 L13.5176018,4.35752992 Z"></path>
                    <path fill="url(#linearGradient-2)" id="路径-17" d="M14.3905177,3.39784455 L17.649749,5.50350026 L17.649749,9.82636903 C17.649749,10.9751228 18.5809979,11.9063717 19.7297517,11.9063717 C19.8261589,11.9063717 19.9224495,11.8996691 20.017927,11.8863123 L31.6567687,10.2580991 C32.6841729,10.1143707 33.4485961,9.23556482 33.4485961,8.19815591 L33.4485961,3.39784455 L33.4485961,3.39784455 L29.7643972,1.47086512 L14.3905177,3.39784455 Z"></path>
                    <polygon points="14.3905177 3.39784455 13.5176018 3.58841194 13.5176018 4.35752992 16.6166064 6.02350093 17.1844516 5.18526676" fill="#BBBCBD" id="路径-18"></polygon>
                    <polygon points="43.0152985 33.5724077 40.1906292 40.5957612 47.4868298 37.8555629" transform="translate(43.838729, 37.084084) rotate(3.000000) translate(-43.838729, -37.084084)" fill="url(#linearGradient-3)" id="路径-20"></polygon>
                    <path fill="url(#linearGradient-4)" id="路径-19" d="M43.2002139,33.5341253 L68.8685207,7.80915813 L73.1193826,13.6988094 L47.4414541,38.0454324 C46.1718875,37.9643373 45.1767512,37.5404907 44.4560452,36.7738928 C43.7353392,36.0072948 43.3167288,34.9273723 43.2002139,33.5341253 Z"></path>
                    <ellipse ry="3.63171855" rx="2.32993113" cy="10.7539838" cx="70.9939516" transform="translate(70.993952, 10.753984) rotate(-36.000000) translate(-70.993952, -10.753984)" fill="#E6E7E7" id="椭圆形"></ellipse>
                </g>
            </g>
        </g>
    </g>
</svg>