<svg xmlns:xlink="http://www.w3.org/1999/xlink" xmlns="http://www.w3.org/2000/svg" version="1.1" viewBox="0 0 153 144" height="144px" width="153px">
    <title> 备份 9</title>
    <defs>
        <linearGradient id="linearGradient-1" y2="-7.86526499%" x2="52.0445751%" y1="100%" x1="52.0445751%">
            <stop offset="0%" stop-opacity="0" stop-color="#F3F4F6"></stop>
            <stop offset="100%" stop-color="#E4E6E9"></stop>
        </linearGradient>
        <linearGradient id="linearGradient-2" y2="56.1389752%" x2="50%" y1="-4.76016529%" x1="42.3935625%">
            <stop offset="0%" stop-color="#F3F4F6"></stop>
            <stop offset="100%" stop-color="#E4E6E9"></stop>
        </linearGradient>
        <linearGradient id="linearGradient-3" y2="69.0460031%" x2="55.3672216%" y1="-5.81905162%" x1="46.0746238%">
            <stop offset="0%" stop-color="#F3F4F6"></stop>
            <stop offset="100%" stop-color="#E4E6E9"></stop>
        </linearGradient>
    </defs>
    <g fill-rule="evenodd" fill="none" stroke-width="1" stroke="none" id="缺省页">
        <g id="编组-28" transform="translate(-592.000000, -429.000000)">
            <g transform="translate(613.000000, 440.000000)">
                <ellipse ry="23.5" rx="55.5" cy="79.5" cx="55.5" opacity="0.685308547" fill="url(#linearGradient-1)" id="椭圆形备份-8"></ellipse>
                <g transform="translate(24.000000, 0.000000)" id="编组-20">
                    <g transform="translate(0.000000, 11.981000)" id="编组-11">
                        <g transform="translate(49.598889, 34.519000) scale(-1, 1) translate(-49.598889, -34.519000) translate(17.218510, 0.000000)" id="编组-9">
                            <g transform="translate(32.380378, 34.519000) rotate(-7.000000) translate(-32.380378, -34.519000) translate(3.593060, 3.275407)" id="编组-10">
                                <path fill="url(#linearGradient-2)" id="路径-12" d="M43.1685197,14.2780038 C38.5192873,13.8371458 36.0427381,11.1682583 35.7388723,6.27134126 C35.7239808,6.03135909 35.7160974,5.70306944 35.7152219,5.28647231 C35.7141641,4.7889175 35.4408837,4.33184109 35.0030898,4.09541279 L34.2262358,3.67587697 L34.2262358,3.67587697 L28.2015567,0.422281175 C24.6966416,-0.537697297 22.0417114,0.13907491 20.2367659,2.4525978 C17.5293477,5.92288213 2.26084061,31.3765147 0.225039662,41.5386687 C-1.14453544,47.0580445 4.01691808,51.4367564 8.13765429,52.6727028 C8.31658792,52.726371 8.54798809,52.7838051 8.83185479,52.8450052 L8.83185822,52.8449892 C9.12770548,52.9087722 9.43002114,52.7688845 9.57290419,52.5020919 C9.64381523,52.3696861 9.70477385,52.2608191 9.75578004,52.175491 C13.2190536,46.3817914 22.7724162,44.3214449 25.4294806,54.1922179 C25.576912,55.7011009 25.1627877,57.1858074 24.1871078,58.6463374 C24.1746727,58.664952 24.1613552,58.6845713 24.1471555,58.7051952 L24.147129,58.7051769 C23.9002028,59.0638169 23.9907648,59.5547252 24.3494048,59.8016513 C24.3751455,59.819374 24.4019172,59.8355505 24.4295781,59.8500951 C24.4295781,59.8500951 24.4295781,59.8500951 24.4295781,59.8500951 C30.5458775,63.0661574 34.9782913,63.3406101 37.7268195,60.673453 C40.1020319,56.9064005 51.8251744,28.5893441 57.2866539,21.5804253 C58.3502566,17.991414 56.5652424,14.2167372 50.2976137,12.0725799 C50.1740362,12.030304 49.9638898,11.9633887 49.6671744,11.8718341 L49.6671767,11.8718265 C49.3058793,11.7603444 48.9144517,11.8046683 48.5872305,11.9941159 C48.4135557,12.0946664 48.2969692,12.1641564 48.237471,12.2025857 C46.4904654,13.3309604 46.0165626,14.332953 43.1685197,14.2780038 Z"></path>
                                <polygon points="27.8114212 17.8994765 30.416317 18.8294066 29.8857529 29.2432044 38.1957848 23.5713405 40.8421878 24.7218067 32.1192544 31.2435931 34.3268045 32.3878283 33.3084582 34.0983181 29.8857529 32.3878283 28.7873185 34.0983181 32.1192544 36.1922171 31.1366829 38.1252336 27.4828969 36.1922171 25.3967487 40.0014727 22.6093985 38.5280155 24.7882689 34.7214556 20.8543288 32.3878283 22.1933921 30.7284185 25.7846249 32.9384077 26.9113941 30.7284185 23.2022823 28.4917091 24.4387903 26.5521319 26.9113941 28.1488192" fill="#FDFDFD" id="路径-13"></polygon>
                            </g>
                        </g>
                        <g fill="url(#linearGradient-3)" transform="translate(14.420257, 53.063311) scale(-1, 1) translate(-14.420257, -53.063311) translate(0.000000, 37.445325)" id="编组-9备份">
                            <path id="路径-12" d="M21.6241445,7.13726035 C19.2952327,6.91688516 18.05467,5.58276694 17.9024564,3.13490569 C17.8950106,3.01516505 17.8910624,2.85144407 17.8906118,2.64374273 C17.8900208,2.39432556 17.7529081,2.16524201 17.5333446,2.04691551 L17.1447405,1.83749013 L17.1447405,1.83749013 L14.1268346,0.211089081 C12.3711388,-0.268783064 11.0412207,0.0695204917 10.1370803,1.22599975 C8.78086972,2.96071863 1.13250916,15.6844303 0.112727752,20.7642678 C-0.573325188,23.5232825 2.01217039,25.7121043 4.07634576,26.3299268 C4.16604546,26.3567745 4.28206653,26.3855076 4.42440898,26.4161261 L4.42440935,26.4161244 C4.57245812,26.4479703 4.72371507,26.3780182 4.79532717,26.2445855 C4.83083523,26.1784243 4.86136074,26.124023 4.88690367,26.0813815 C6.62174026,23.1852384 11.4072482,22.1553164 12.7382353,27.0894989 C12.8120872,27.8437564 12.6046425,28.5859286 12.1159011,29.3160154 C12.1097381,29.3252218 12.1031425,29.3349197 12.0961143,29.3451092 L12.0960806,29.345086 C11.9725158,29.5242301 12.0175717,29.7696242 12.1967158,29.893189 C12.2097579,29.9021848 12.2233307,29.9103859 12.2373603,29.9177475 C12.2373603,29.9177475 12.2373603,29.9177475 12.2373603,29.9177475 C15.301161,31.5253863 17.5214631,31.6625792 18.8982667,30.329326 C20.0880674,28.4462592 25.96047,14.2911849 28.6962558,10.7875804 C29.2290398,8.99351254 28.3348835,7.10663452 25.1952783,6.03481743 C25.1333052,6.0136607 25.0278694,5.98015934 24.8789708,5.93431337 L24.8789788,5.93428738 C24.6983036,5.8786574 24.5026228,5.90078283 24.3389303,5.99535009 C24.2516982,6.04574518 24.193156,6.0805633 24.1633035,6.09980447 C23.2881866,6.6638542 23.0507974,7.16472828 21.6241445,7.13726035 Z"></path>
                        </g>
                    </g>
                    <path fill-rule="nonzero" fill="#D8DADD" id="！" d="M71.3225806,17.9803922 L71.8064516,8 L69.1935484,8 L69.6774194,17.9803922 L71.3225806,17.9803922 Z M70.4903226,22 C70.916129,22 71.2645161,21.8627451 71.5741935,21.5882353 C71.8451613,21.3137255 72,20.9411765 72,20.5098039 C72,20.0784314 71.8451613,19.7254902 71.5741935,19.4509804 C71.283871,19.1764706 70.916129,19.0392157 70.4903226,19.0392157 C70.0645161,19.0392157 69.716129,19.1764706 69.4451613,19.4509804 C69.1354839,19.7254902 69,20.0784314 69,20.5098039 C69,20.9411765 69.1354839,21.2941176 69.4451613,21.5686275 C69.716129,21.8431373 70.0645161,22 70.4903226,22 Z"></path>
                    <path fill-rule="nonzero" fill="#D8DADD" id="！备份" d="M58.3225806,9.98039216 L58.8064516,0 L56.1935484,0 L56.6774194,9.98039216 L58.3225806,9.98039216 Z M57.4903226,14 C57.916129,14 58.2645161,13.8627451 58.5741935,13.5882353 C58.8451613,13.3137255 59,12.9411765 59,12.5098039 C59,12.0784314 58.8451613,11.7254902 58.5741935,11.4509804 C58.283871,11.1764706 57.916129,11.0392157 57.4903226,11.0392157 C57.0645161,11.0392157 56.716129,11.1764706 56.4451613,11.4509804 C56.1354839,11.7254902 56,12.0784314 56,12.5098039 C56,12.9411765 56.1354839,13.2941176 56.4451613,13.5686275 C56.716129,13.8431373 57.0645161,14 57.4903226,14 Z"></path>
                    <path fill-rule="nonzero" fill="#D8DADD" id="！备份-2" d="M45.3225806,12.9803922 L45.8064516,3 L43.1935484,3 L43.6774194,12.9803922 L45.3225806,12.9803922 Z M44.4903226,17 C44.916129,17 45.2645161,16.8627451 45.5741935,16.5882353 C45.8451613,16.3137255 46,15.9411765 46,15.5098039 C46,15.0784314 45.8451613,14.7254902 45.5741935,14.4509804 C45.283871,14.1764706 44.916129,14.0392157 44.4903226,14.0392157 C44.0645161,14.0392157 43.716129,14.1764706 43.4451613,14.4509804 C43.1354839,14.7254902 43,15.0784314 43,15.5098039 C43,15.9411765 43.1354839,16.2941176 43.4451613,16.5686275 C43.716129,16.8431373 44.0645161,17 44.4903226,17 Z"></path>
                </g>
            </g>
        </g>
    </g>
</svg>