<svg xmlns:xlink="http://www.w3.org/1999/xlink" xmlns="http://www.w3.org/2000/svg" version="1.1" viewBox="0 0 153 144" height="144px" width="153px">
    <title> 备份 7</title>
    <defs>
        <linearGradient id="linearGradient-1" y2="-7.86526499%" x2="52.0445751%" y1="100%" x1="52.0445751%">
            <stop offset="0%" stop-opacity="0" stop-color="#F3F4F6"></stop>
            <stop offset="100%" stop-color="#E4E6E9"></stop>
        </linearGradient>
        <linearGradient id="linearGradient-2" y2="57.1210666%" x2="30.5881986%" y1="33.1277153%" x1="-6.81037759%">
            <stop offset="0%" stop-color="#F4F4F6"></stop>
            <stop offset="100%" stop-color="#E4E6E9"></stop>
        </linearGradient>
        <linearGradient id="linearGradient-3" y2="24.6181883%" x2="50%" y1="116.239454%" x1="50%">
            <stop offset="0%" stop-color="#F1F1F2"></stop>
            <stop offset="100%" stop-color="#DEDFE1"></stop>
        </linearGradient>
        <linearGradient id="linearGradient-4" y2="63.9040034%" x2="94.3337496%" y1="39.4056837%" x1="42.636651%">
            <stop offset="0%" stop-color="#EEEEEE"></stop>
            <stop offset="100%" stop-color="#D8D8D8"></stop>
        </linearGradient>
        <linearGradient id="linearGradient-5" y2="63.3824379%" x2="94.3337496%" y1="39.8030966%" x1="42.636651%">
            <stop offset="0%" stop-color="#EEEEEE"></stop>
            <stop offset="100%" stop-color="#D8D8D8"></stop>
        </linearGradient>
        <linearGradient id="linearGradient-6" y2="55.5512595%" x2="94.3337496%" y1="45.7701536%" x1="42.636651%">
            <stop offset="0%" stop-color="#EEEEEE"></stop>
            <stop offset="100%" stop-color="#D8D8D8"></stop>
        </linearGradient>
    </defs>
    <g fill-rule="evenodd" fill="none" stroke-width="1" stroke="none" id="缺省页">
        <g id="编组-23" transform="translate(-853.000000, -261.000000)">
            <g transform="translate(874.000000, 264.000000)">
                <ellipse ry="23.5" rx="55.5" cy="90.5" cx="55.5" fill="url(#linearGradient-1)" id="椭圆形"></ellipse>
                <g transform="translate(19.001521, 0.000000)" id="编组-16">
                    <g transform="translate(7.113092, 30.579170)" id="编组-15">
                        <path fill="url(#linearGradient-2)" id="矩形" d="M4.73167415,12.930701 L63.6003691,12.930701 L63.6003691,12.930701 L52.5060873,42.5875531 L13.7716662,42.5875531 C12.4389294,42.5875531 11.2426793,41.7699622 10.7586088,40.5282444 L1.71861677,17.3392265 C1.06989847,15.6751608 1.89300013,13.800279 3.55706577,13.1515607 C3.9314787,13.0055998 4.32981643,12.930701 4.73167415,12.930701 Z"></path>
                        <polyline points="52.7402051 41.0628713 69.1943348 0 77.8853874 0" stroke-linecap="round" stroke-width="3.23391707" stroke="#E4E6E9" id="路径"></polyline>
                        <path stroke-linecap="round" stroke-width="3.23391707" stroke="#E4E6E9" id="路径" d="M14.0136406,39.8696615 L48.5087561,39.8696615 C52.0808423,39.8696615 54.9765902,42.7642975 54.9765902,46.335012 L54.9765902,48.4901289 C54.9765902,52.0608434 52.0808423,54.9554794 48.5087561,54.9554794 L14.0136406,54.9554794"></path>
                        <ellipse ry="3.23267526" rx="3.23391707" cy="58.1881546" cx="22.6374195" fill="url(#linearGradient-3)" id="椭圆形"></ellipse>
                        <ellipse ry="3.23267526" rx="3.23391707" cy="58.1881546" cx="43.1188943" fill="url(#linearGradient-3)" id="椭圆形备份"></ellipse>
                        <rect rx="2.15594472" height="19.3960515" width="4.31188943" y="18.3184931" x="32.3391707" fill="#FFFFFF" id="矩形"></rect>
                        <path transform="translate(21.559447, 29.094077) rotate(-15.000000) translate(-21.559447, -29.094077)" fill="#FFFFFF" id="矩形备份" d="M21.5585158,19.395802 C22.7492475,19.3959163 23.7144977,20.3611665 23.7146121,21.5518982 L23.7160607,36.6366704 C23.7161751,37.8271065 22.7512286,38.7922383 21.5607924,38.7923527 C21.5606545,38.7923527 21.5605165,38.7923527 21.5603785,38.7923527 C20.3696468,38.7922383 19.4043966,37.8269882 19.4042822,36.6362564 L19.4028336,21.5514843 C19.4027192,20.3610481 20.3676657,19.3959163 21.5581019,19.395802 C21.5582398,19.395802 21.5583778,19.395802 21.5585158,19.395802 Z"></path>
                        <path transform="translate(46.352811, 29.094077) scale(-1, 1) rotate(-15.000000) translate(-46.352811, -29.094077)" fill="#FFFFFF" id="矩形备份-2" d="M46.35188,19.395802 C47.5426117,19.3959163 48.507862,20.3611665 48.5079763,21.5518982 L48.509425,36.6366704 C48.5095393,37.8271065 47.5445928,38.7922383 46.3541567,38.7923527 C46.3540187,38.7923527 46.3538807,38.7923527 46.3537427,38.7923527 C45.163011,38.7922383 44.1977608,37.8269882 44.1976464,36.6362564 L44.1961978,21.5514843 C44.1960835,20.3610481 45.16103,19.3959163 46.3514661,19.395802 C46.3516041,19.395802 46.351742,19.395802 46.35188,19.395802 Z"></path>
                    </g>
                    <path transform="translate(55.101534, 23.938600) rotate(95.000000) translate(-55.101534, -23.938600)" fill="url(#linearGradient-4)" id="路径-2" d="M54.0541246,21.9407994 C56.7774756,21.3260326 58.4894257,22.5033586 59.189975,25.4727773 C57.0597967,26.9317048 54.3341697,25.8232914 51.0130939,22.1475373 L54.0541246,21.9407994 Z"></path>
                    <path transform="translate(5.200865, 10.973239) rotate(35.000000) translate(-5.200865, -10.973239)" fill="url(#linearGradient-5)" id="路径-2备份" d="M3.96850608,9.65004175 C7.19701888,9.59622944 9.16138218,10.7189491 9.86159598,13.0182008 C7.73062233,14.148374 4.62346857,12.6629803 0.540134676,8.5620198 L3.96850608,9.65004175 Z"></path>
                    <path transform="translate(10.661565, 23.236782) rotate(11.000000) translate(-10.661565, -23.236782)" fill="url(#linearGradient-6)" id="路径-2备份-2" d="M9.83319122,22.2384138 C11.987373,21.9309429 13.3414352,22.5192639 13.8953775,24.0033767 C12.2103368,24.7327293 10.0544621,24.1789266 7.42775339,22.3419685 L9.83319122,22.2384138 Z"></path>
                    <path transform="translate(32.530473, 19.931294) rotate(16.000000) translate(-32.530473, -19.931294)" stroke-dasharray="1.077972357516457" stroke-width="1.07797236" stroke="#B9BBC0" id="路径-3" d="M3.42732948,7.54197212 C19.6873792,23.0067567 31.4070514,27.7841352 38.5863461,21.8741074 C49.3552882,13.0090658 23.0433114,7.47852725 27.0634183,24.1241823 C30.5237931,33.2864402 51.8283639,26.0444023 56.5513739,28.9743436 C58.9508925,30.065878 60.6449732,31.1813023 61.633616,32.3206165"></path>
                </g>
            </g>
        </g>
    </g>
</svg>