<svg viewBox="0 0 400 400" xmlns:xlink="http://www.w3.org/1999/xlink" xmlns="http://www.w3.org/2000/svg" id="图层_1"><defs><style>.cls-1{fill:url(#未命名的渐变_33);}.cls-2{fill:#c4c4c4;opacity:0.6;}.cls-3,.cls-4{fill:#cecece;}.cls-4{opacity:0.5;}.cls-5{fill:#eaeaea;}.cls-6{fill:url(#未命名的渐变_13);}.cls-7{fill:url(#未命名的渐变_13-2);}.cls-8{fill:url(#未命名的渐变_13-3);}.cls-9{fill:url(#未命名的渐变_13-4);}.cls-10{fill:url(#未命名的渐变_13-5);}.cls-11{fill:url(#未命名的渐变_13-6);}.cls-12{fill:url(#未命名的渐变_13-7);}.cls-13{fill:url(#未命名的渐变_13-8);}.cls-14{fill:url(#未命名的渐变_13-9);}.cls-15{fill:url(#未命名的渐变_13-10);}.cls-16{fill:url(#未命名的渐变_13-11);}.cls-17{fill:url(#未命名的渐变_13-12);}.cls-18{fill:url(#未命名的渐变_13-13);}.cls-19{fill:url(#未命名的渐变_13-14);}.cls-20{fill:url(#未命名的渐变_13-15);}.cls-21{fill:url(#未命名的渐变_13-16);}.cls-22{fill:url(#未命名的渐变_13-17);}.cls-23{fill:url(#未命名的渐变_13-18);}.cls-24{fill:url(#未命名的渐变_37);}.cls-25{fill:url(#未命名的渐变_37-2);}.cls-26{fill:url(#未命名的渐变_37-3);}.cls-27{fill:url(#未命名的渐变_37-4);}.cls-28{fill:#adadad;}.cls-29{fill:#c8c8c8;}.cls-30{fill:#e2e2e2;}.cls-31,.cls-32{opacity:0.7;}.cls-31{fill:url(#未命名的渐变_13-19);}.cls-32{fill:url(#未命名的渐变_13-20);}</style><linearGradient gradientUnits="userSpaceOnUse" y2="384.16" x2="197.93" y1="141.55" x1="212.27" id="未命名的渐变_33"><stop stop-color="#f0eff2" offset="0"></stop><stop stop-opacity="0.95" stop-color="#edecef" offset="0.01"></stop><stop stop-opacity="0.75" stop-color="#e1e0e4" offset="0.08"></stop><stop stop-opacity="0.57" stop-color="#d7d6da" offset="0.16"></stop><stop stop-opacity="0.42" stop-color="#cecdd1" offset="0.23"></stop><stop stop-opacity="0.29" stop-color="#c6c5ca" offset="0.32"></stop><stop stop-opacity="0.18" stop-color="#c0bfc4" offset="0.4"></stop><stop stop-opacity="0.1" stop-color="#bbbac0" offset="0.5"></stop><stop stop-opacity="0.04" stop-color="#b8b7bc" offset="0.62"></stop><stop stop-opacity="0.01" stop-color="#b6b5bb" offset="0.75"></stop><stop stop-opacity="0" stop-color="#b5b4ba" offset="1"></stop></linearGradient><linearGradient gradientUnits="userSpaceOnUse" y2="198.63" x2="305.75" y1="182" x1="322.03" id="未命名的渐变_13"><stop stop-color="#f0eff2" offset="0"></stop><stop stop-color="#c6c5cc" offset="1"></stop></linearGradient><linearGradient xlink:href="#未命名的渐变_13" y2="192.42" x2="314.76" y1="191.56" x1="315.06" id="未命名的渐变_13-2"></linearGradient><linearGradient xlink:href="#未命名的渐变_13" y2="197.41" x2="313.87" y1="197.54" x1="314.56" id="未命名的渐变_13-3"></linearGradient><linearGradient xlink:href="#未命名的渐变_13" y2="210.47" x2="325.15" y1="189.41" x1="345.77" id="未命名的渐变_13-4"></linearGradient><linearGradient xlink:href="#未命名的渐变_13" y2="202.61" x2="336.56" y1="201.52" x1="336.94" id="未命名的渐变_13-5"></linearGradient><linearGradient xlink:href="#未命名的渐变_13" y2="208.93" x2="335.43" y1="209.09" x1="336.3" id="未命名的渐变_13-6"></linearGradient><linearGradient xlink:href="#未命名的渐变_13" y2="247.18" x2="24.37" y1="217.93" x1="53.02" id="未命名的渐变_13-7"></linearGradient><linearGradient xlink:href="#未命名的渐变_13" y2="236.27" x2="40.22" y1="234.76" x1="40.75" id="未命名的渐变_13-8"></linearGradient><linearGradient xlink:href="#未命名的渐变_13" y2="245.04" x2="38.65" y1="245.27" x1="39.87" id="未命名的渐变_13-9"></linearGradient><linearGradient xlink:href="#未命名的渐变_13" y2="231.75" x2="126.23" y1="215.61" x1="142.03" id="未命名的渐变_13-10"></linearGradient><linearGradient xlink:href="#未命名的渐变_13" y2="225.73" x2="134.98" y1="224.89" x1="135.27" id="未命名的渐变_13-11"></linearGradient><linearGradient xlink:href="#未命名的渐变_13" y2="230.56" x2="134.11" y1="230.69" x1="134.78" id="未命名的渐变_13-12"></linearGradient><linearGradient xlink:href="#未命名的渐变_13" y2="195.24" x2="72.21" y1="179.11" x1="88.01" id="未命名的渐变_13-13"></linearGradient><linearGradient xlink:href="#未命名的渐变_13" y2="189.22" x2="80.95" y1="188.39" x1="81.25" id="未命名的渐变_13-14"></linearGradient><linearGradient xlink:href="#未命名的渐变_13" y2="194.06" x2="80.09" y1="194.19" x1="80.76" id="未命名的渐变_13-15"></linearGradient><linearGradient xlink:href="#未命名的渐变_13" y2="277.56" x2="374.99" y1="261.43" x1="390.79" id="未命名的渐变_13-16"></linearGradient><linearGradient xlink:href="#未命名的渐变_13" y2="271.54" x2="383.73" y1="270.71" x1="384.02" id="未命名的渐变_13-17"></linearGradient><linearGradient xlink:href="#未命名的渐变_13" y2="276.38" x2="382.87" y1="276.51" x1="383.53" id="未命名的渐变_13-18"></linearGradient><linearGradient gradientUnits="userSpaceOnUse" y2="134.78" x2="94.07" y1="108.34" x1="83.2" id="未命名的渐变_37"><stop stop-color="#f0eff2" offset="0"></stop><stop stop-opacity="0" stop-color="#c6c5cc" offset="1"></stop></linearGradient><linearGradient xlink:href="#未命名的渐变_37" y2="136.51" x2="106.7" y1="121.55" x1="100.55" id="未命名的渐变_37-2"></linearGradient><linearGradient xlink:href="#未命名的渐变_37" y2="153.44" x2="297.1" y1="128.01" x1="296.25" id="未命名的渐变_37-3"></linearGradient><linearGradient xlink:href="#未命名的渐变_37" y2="155.85" x2="313.74" y1="145.6" x1="313.4" id="未命名的渐变_37-4"></linearGradient><linearGradient xlink:href="#未命名的渐变_13" y2="82.18" x2="270.58" y1="65.89" x1="286.2" id="未命名的渐变_13-19"></linearGradient><linearGradient xlink:href="#未命名的渐变_13" y2="158.24" x2="54.07" y1="141.95" x1="69.69" id="未命名的渐变_13-20"></linearGradient></defs><title>空状态13</title><path d="M7.45,328.86C8.68,230.47,95,151.07,201.22,151.07,308.24,151.07,395,231.62,395,331" class="cls-1"></path><ellipse ry="17.62" rx="18.98" cy="260.57" cx="219.35" class="cls-2"></ellipse><ellipse ry="11.88" rx="14.48" cy="181.45" cx="267.33" class="cls-3"></ellipse><path d="M176.51,165.5c6.6,0,12-4.72,12-10.53a9.32,9.32,0,0,0-.68-3.46,207.15,207.15,0,0,0-23.19,2.78c0,.23,0,.45,0,.68C164.56,160.78,169.91,165.5,176.51,165.5Z" class="cls-3"></path><path d="M106.35,204.56c15.57,0,28.19-11.72,28.19-26.18a24.75,24.75,0,0,0-4.77-14.56,198.25,198.25,0,0,0-49.08,25.36C85.12,198.24,94.93,204.56,106.35,204.56Z" class="cls-4"></path><ellipse ry="13.05" rx="14.05" cy="260.57" cx="102.69" class="cls-5"></ellipse><ellipse ry="7.81" rx="8.41" cy="278.53" cx="290.67" class="cls-5"></ellipse><path d="M315.5,184.52c.34-1.35.69-4-1.56-4.5a3.34,3.34,0,0,0-3.79,2.32,84.11,84.11,0,0,0-1.23,8.95,2.5,2.5,0,0,1-.11.53,5.45,5.45,0,0,1-2.48,3.15c-2,1,2,7.1,7.69,5.46s6.12-4.83,5.73-9.18c-.34-3.81-3.12-1.48-4.15-4.36A4.16,4.16,0,0,1,315.5,184.52Z" class="cls-6"></path><path d="M312.61,196.6a4.7,4.7,0,0,0,.93-.76,6.52,6.52,0,0,0,.75-1,7.38,7.38,0,0,0,.55-1.13,8.15,8.15,0,0,0,.35-1.22,9.28,9.28,0,0,1-.23,1.26,6.48,6.48,0,0,1-.44,1.21,6.41,6.41,0,0,1-.69,1.11,4.56,4.56,0,0,1-1,.95Z" class="cls-7"></path><path d="M312.65,189a11.17,11.17,0,0,0-.56,4,6.42,6.42,0,0,0,.43,2,12.39,12.39,0,0,1,.68,2,12.25,12.25,0,0,1,.33,2.1,13.65,13.65,0,0,1,0,2.12c0,.35-.07.7-.13,1.05s-.1.66-.13,1-.05.66-.07,1l0,.52,0,.26,0,.13v.06s0,.05-.06.07h-.41c-.08,0,0-.05-.05-.07v-1a9.42,9.42,0,0,1,0-1.06,8.85,8.85,0,0,1,.14-1.05c.06-.34.11-.67.14-1a12.68,12.68,0,0,0-.16-4,13.65,13.65,0,0,0-.56-2,6.57,6.57,0,0,1-.36-2.1,10.73,10.73,0,0,1,.81-4.09Z" class="cls-8"></path><path d="M337.5,192.61c.42-1.71.86-5.09-2-5.7a4.23,4.23,0,0,0-4.8,2.94c-.6,1.82-1.4,9.72-1.56,11.33a2.87,2.87,0,0,1-.14.66,6.83,6.83,0,0,1-3.14,4c-2.57,1.31,2.49,9,9.74,6.91s7.75-6.11,7.26-11.62c-.43-4.82-3.95-1.87-5.26-5.52A5.11,5.11,0,0,1,337.5,192.61Z" class="cls-9"></path><path d="M333.83,207.9a5.53,5.53,0,0,0,1.17-1,8.22,8.22,0,0,0,1-1.24,8.55,8.55,0,0,0,.69-1.43,10.21,10.21,0,0,0,.45-1.55,12.49,12.49,0,0,1-.29,1.6,9.7,9.7,0,0,1-.56,1.53,7.87,7.87,0,0,1-.87,1.41,6.26,6.26,0,0,1-1.21,1.2Z" class="cls-10"></path><path d="M333.88,198.32a14,14,0,0,0-.7,5.12,7.64,7.64,0,0,0,.54,2.47,16.74,16.74,0,0,1,.86,2.53,14.89,14.89,0,0,1,.42,2.66,18.42,18.42,0,0,1-.06,2.68c0,.45-.1.89-.17,1.33s-.12.85-.16,1.27-.07.84-.1,1.29l-.05.65,0,.33v.25s0,0-.08.08l-.51,0c-.11,0-.06-.05-.07-.08v-.57l0-.66a10,10,0,0,1,0-1.34,11.68,11.68,0,0,1,.19-1.34c.07-.42.13-.84.17-1.27a15.87,15.87,0,0,0-.2-5.1,16.71,16.71,0,0,0-.72-2.48,8.73,8.73,0,0,1-.45-2.66,13.5,13.5,0,0,1,1-5.19Z" class="cls-11"></path><path d="M41.53,222.37c.58-2.37,1.2-7.07-2.75-7.92a5.88,5.88,0,0,0-6.67,4.08c-.83,2.53-1.94,13.51-2.17,15.75a4.83,4.83,0,0,1-.18.92,9.52,9.52,0,0,1-4.38,5.55c-3.56,1.82,3.46,12.48,13.54,9.6S49.69,241.86,49,234.21c-.6-6.7-5.49-2.6-7.32-7.67A7.22,7.22,0,0,1,41.53,222.37Z" class="cls-12"></path><path d="M36.44,243.61a7.44,7.44,0,0,0,1.63-1.33,10.27,10.27,0,0,0,1.32-1.73,11.72,11.72,0,0,0,1-2,15.56,15.56,0,0,0,.61-2.15,15.19,15.19,0,0,1-.4,2.22,11.84,11.84,0,0,1-.78,2.13,10.79,10.79,0,0,1-1.21,2,8,8,0,0,1-1.68,1.66Z" class="cls-13"></path><path d="M36.5,230.31a19.61,19.61,0,0,0-1,7.11,10.61,10.61,0,0,0,.76,3.44,24.15,24.15,0,0,1,1.19,3.51,20.85,20.85,0,0,1,.58,3.69,24.4,24.4,0,0,1-.09,3.73c0,.62-.13,1.24-.23,1.85s-.17,1.17-.23,1.76-.09,1.17-.13,1.79l-.07.91,0,.45v.34s0,.08-.1.12l-.72,0c-.14,0-.08-.08-.1-.12v-.34l0-.46,0-.91a16.6,16.6,0,0,1,0-1.86c0-.62.15-1.26.26-1.86s.18-1.17.24-1.76a22.55,22.55,0,0,0-.28-7.1,26.84,26.84,0,0,0-1-3.44,11.5,11.5,0,0,1-.63-3.7,18.61,18.61,0,0,1,1.43-7.2Z" class="cls-14"></path><path d="M135.7,218.06c.32-1.31.66-3.9-1.52-4.37A3.26,3.26,0,0,0,130.5,216a83.86,83.86,0,0,0-1.19,8.68,3.06,3.06,0,0,1-.1.51,5.34,5.34,0,0,1-2.42,3.06c-2,1,1.91,6.88,7.47,5.29s5.94-4.68,5.56-8.9c-.33-3.69-3-1.43-4-4.23A4,4,0,0,1,135.7,218.06Z" class="cls-15"></path><path d="M132.89,229.78a4.12,4.12,0,0,0,.9-.74,6.15,6.15,0,0,0,.73-.95,7,7,0,0,0,.53-1.1,8,8,0,0,0,.34-1.18,8.43,8.43,0,0,1-.22,1.22,6.93,6.93,0,0,1-.43,1.18,6.06,6.06,0,0,1-.67,1.08,4.45,4.45,0,0,1-.92.92Z" class="cls-16"></path><path d="M132.93,222.44a10.72,10.72,0,0,0-.54,3.92,5.89,5.89,0,0,0,.42,1.9,12.51,12.51,0,0,1,.65,1.93,10.83,10.83,0,0,1,.32,2,12.89,12.89,0,0,1,0,2.06c0,.34-.08.68-.13,1s-.1.64-.13,1,0,.64-.07,1l0,.5,0,.26v.18s0,.05-.06.07h-.4c-.07,0,0,0,0-.07v-.44l0-.5a8.9,8.9,0,0,1,0-1c0-.34.08-.69.14-1s.1-.65.14-1a12.51,12.51,0,0,0-.16-3.91,13.59,13.59,0,0,0-.55-1.9,6.47,6.47,0,0,1-.34-2,10.16,10.16,0,0,1,.79-4Z" class="cls-17"></path><path d="M81.67,181.56c.33-1.31.67-3.9-1.51-4.37a3.23,3.23,0,0,0-3.68,2.25,84.33,84.33,0,0,0-1.2,8.68,2.1,2.1,0,0,1-.1.51,5.26,5.26,0,0,1-2.41,3.07c-2,1,1.91,6.88,7.47,5.29s5.93-4.68,5.56-8.9c-.33-3.7-3-1.44-4-4.23A4,4,0,0,1,81.67,181.56Z" class="cls-18"></path><path d="M78.86,193.27a4.37,4.37,0,0,0,.9-.73,5.88,5.88,0,0,0,1.26-2,6.92,6.92,0,0,0,.34-1.18,6.38,6.38,0,0,1-.22,1.22,6.7,6.7,0,0,1-.43,1.18,5.93,5.93,0,0,1-.66,1.07,4.51,4.51,0,0,1-.93.92Z" class="cls-19"></path><path d="M78.9,185.93a11,11,0,0,0-.54,3.93,6,6,0,0,0,.42,1.89,12,12,0,0,1,1,4,14,14,0,0,1-.05,2.05c0,.34-.07.68-.13,1s-.09.65-.12,1,0,.65-.07,1l0,.5,0,.25v.19s0,0,0,.06h-.4c-.08,0,0,0,0-.06v-.44l0-.51a9.75,9.75,0,0,1,.17-2.05c0-.32.1-.64.13-1a12.5,12.5,0,0,0-.15-3.91,15.84,15.84,0,0,0-.55-1.9,6.25,6.25,0,0,1-.35-2,10.34,10.34,0,0,1,.79-4Z" class="cls-20"></path><path d="M384.45,263.88c.32-1.31.67-3.9-1.52-4.37a3.22,3.22,0,0,0-3.67,2.25,81.67,81.67,0,0,0-1.2,8.68,2.1,2.1,0,0,1-.1.51,5.21,5.21,0,0,1-2.41,3.06c-2,1,1.91,6.89,7.47,5.3s5.93-4.68,5.55-8.9c-.32-3.7-3-1.44-4-4.23A4,4,0,0,1,384.45,263.88Z" class="cls-21"></path><path d="M381.64,275.59a4.37,4.37,0,0,0,.9-.73,5.28,5.28,0,0,0,.73-1,5.49,5.49,0,0,0,.53-1.09,6.92,6.92,0,0,0,.34-1.18,7.26,7.26,0,0,1-.22,1.22,6.33,6.33,0,0,1-.43,1.17,5.68,5.68,0,0,1-.66,1.08,4.51,4.51,0,0,1-.93.92Z" class="cls-22"></path><path d="M381.68,268.25a11,11,0,0,0-.54,3.93,6,6,0,0,0,.42,1.89,12,12,0,0,1,1,4,14,14,0,0,1-.05,2.05c0,.34-.07.68-.13,1s-.09.65-.12,1-.05.65-.08,1l0,.5V284s0,0-.06.06h-.39c-.08,0-.05,0-.05-.06v-.44l0-.51c0-.33,0-.68,0-1s.09-.7.14-1,.11-.64.14-1a12.5,12.5,0,0,0-.15-3.91,15.84,15.84,0,0,0-.55-1.9,6.25,6.25,0,0,1-.35-2,10.34,10.34,0,0,1,.79-4Z" class="cls-23"></path><path d="M98.21,121.78a6.42,6.42,0,0,0-1.59.21c0-.07,0-.14,0-.21a6.48,6.48,0,1,0-13,0v.07a6.48,6.48,0,0,0,.89,12.89,6.38,6.38,0,0,0,3.27-.89,6.31,6.31,0,0,0,2.72.61,6.5,6.5,0,0,0,3.64-1.12,6.48,6.48,0,1,0,4-11.56Z" class="cls-24"></path><path d="M109,129.15a3.83,3.83,0,0,0-.9.12s0-.08,0-.12a3.67,3.67,0,0,0-7.34,0s0,0,0,0a3.67,3.67,0,0,0,.5,7.3,3.76,3.76,0,0,0,1.85-.5,3.64,3.64,0,0,0,3.6-.3,3.6,3.6,0,0,0,2.27.8,3.67,3.67,0,0,0,0-7.34Z" class="cls-25"></path><path d="M306.84,139.72a9.24,9.24,0,0,0-2.3.3c0-.1,0-.2,0-.3a9.39,9.39,0,1,0-18.78,0v.1a9.38,9.38,0,1,0,6,17.4,9.39,9.39,0,0,0,9.22-.75,9.39,9.39,0,1,0,5.83-16.75Z" class="cls-26"></path><path d="M317.67,150.32a4.08,4.08,0,0,0-.93.12s0-.08,0-.12a3.79,3.79,0,0,0-7.57,0v0a3.78,3.78,0,0,0,.52,7.53,3.73,3.73,0,0,0,1.9-.52,3.71,3.71,0,0,0,1.59.36,3.81,3.81,0,0,0,2.13-.66,3.79,3.79,0,1,0,2.35-6.75Z" class="cls-27"></path><path d="M253.21,189.63l-31.87-41.37a56.27,56.27,0,1,0-22.18,16.93l32,41.47a13.94,13.94,0,1,0,22.08-17Zm-56.82-47.86a34.8,34.8,0,0,1-11.45,5A34.4,34.4,0,1,1,207.23,130,33.84,33.84,0,0,1,196.39,141.77Z" class="cls-28"></path><path d="M258.83,190.36,227,149a56.29,56.29,0,1,0-22.18,16.92l32,41.47a13.94,13.94,0,0,0,22.09-17ZM202,142.5a35,35,0,0,1-11.45,5,34.55,34.55,0,1,1,11.45-5Z" class="cls-29"></path><path d="M264.45,191.09l-31.87-41.37a56.29,56.29,0,1,0-22.18,16.92l32,41.47a13.94,13.94,0,0,0,22.09-17Zm-56.82-47.86a34.77,34.77,0,0,1-11.45,5,34.48,34.48,0,1,1,11.45-5Z" class="cls-30"></path><polygon points="273.3 75.5 278.44 72.8 277.45 78.53 281.61 82.58 275.87 83.41 273.3 88.62 270.73 83.41 264.98 82.58 269.14 78.53 268.16 72.8 273.3 75.5" class="cls-31"></polygon><polygon points="56.78 151.57 61.92 148.87 60.94 154.59 65.1 158.64 59.35 159.47 56.78 164.68 54.21 159.47 48.47 158.64 52.63 154.59 51.65 148.87 56.78 151.57" class="cls-32"></polygon></svg>